<svg width="794" height="272" viewBox="0 0 794 272" fill="none" xmlns="http://www.w3.org/2000/svg">
<path d="M794 271.192H723.993L602.97 64.722L517.336 209.269C460.463 282.496 354.604 290.37 288.666 224.907L330.551 181.246C342.528 185.746 350.997 196.068 364.518 201.13C470.532 240.831 503.76 86.8115 551.942 25.5058C578.134 -7.82148 626.328 -8.82504 652.63 24.4801L793.978 271.192H794Z" fill="url(#paint0_linear_3730_15)"/>
<path d="M73.5581 0.572266L189.862 207.086C191.207 208.112 193.38 204.307 194.196 203.138C224.159 160.415 245.83 104.745 276.665 62.4956C330.251 -10.9302 443.025 -19.6645 505.401 46.8576L463.593 90.6065C436.574 67.9546 407.437 58.3711 372.555 68.2193C312.341 85.2137 279.896 198.793 242.047 246.259C213.87 281.604 164.364 278.726 138.977 242.542L0 0.572266H73.5581Z" fill="url(#paint1_linear_3730_15)"/>
<defs>
<linearGradient id="paint0_linear_3730_15" x1="331.608" y1="342.302" x2="1210.06" y2="11.1767" gradientUnits="userSpaceOnUse">
<stop stop-color="#C7A81E"/>
<stop offset="1" stop-color="white"/>
</linearGradient>
<linearGradient id="paint1_linear_3730_15" x1="42.9472" y1="342.264" x2="921.096" y2="10.6183" gradientUnits="userSpaceOnUse">
<stop stop-color="#C7A81E"/>
<stop offset="1" stop-color="white"/>
</linearGradient>
</defs>
</svg>
